<svg width="1200" height="760" viewBox="0 0 1200 760" fill="none" xmlns="http://www.w3.org/2000/svg">
  <rect width="1200" height="760" fill="#F9F9F9"/>
  <rect x="56" y="56" width="1088" height="648" rx="18" fill="white" stroke="#161616" stroke-opacity="0.15" stroke-width="2"/>
  <rect x="102" y="108" width="996" height="64" rx="12" fill="#111111"/>
  <rect x="132" y="132" width="220" height="12" rx="6" fill="#FFFFFF"/>
  <rect x="102" y="206" width="320" height="438" rx="12" fill="#FAFAFA" stroke="#111111" stroke-opacity="0.12"/>
  <rect x="126" y="234" width="180" height="180" rx="12" fill="#EDEDED"/>
  <rect x="126" y="430" width="250" height="8" rx="4" fill="#111111"/>
  <rect x="126" y="454" width="210" height="8" rx="4" fill="#111111" fill-opacity="0.5"/>
  <rect x="442" y="206" width="656" height="212" rx="12" fill="#FCFCFC" stroke="#111111" stroke-opacity="0.12"/>
  <rect x="468" y="242" width="360" height="10" rx="5" fill="#111111"/>
  <rect x="468" y="272" width="580" height="8" rx="4" fill="#111111" fill-opacity="0.5"/>
  <rect x="468" y="296" width="540" height="8" rx="4" fill="#111111" fill-opacity="0.34"/>
  <rect x="442" y="432" width="316" height="212" rx="12" fill="#F1F1F1" stroke="#111111" stroke-opacity="0.1"/>
  <rect x="782" y="432" width="316" height="212" rx="12" fill="#F1F1F1" stroke="#111111" stroke-opacity="0.1"/>
</svg>

