<svg width="1400" height="900" viewBox="0 0 1400 900" fill="none" xmlns="http://www.w3.org/2000/svg">
  <rect width="1400" height="900" fill="#F8F8F8"/>
  <rect x="72" y="72" width="1256" height="756" rx="20" fill="white" stroke="#1A1A1A" stroke-opacity="0.2" stroke-width="2"/>
  <rect x="128" y="142" width="740" height="440" rx="14" fill="#FFFFFF" stroke="#151515" stroke-opacity="0.18"/>
  <rect x="156" y="182" width="420" height="10" rx="5" fill="#151515"/>
  <rect x="156" y="212" width="620" height="8" rx="4" fill="#2A2A2A" fill-opacity="0.55"/>
  <rect x="156" y="236" width="560" height="8" rx="4" fill="#2A2A2A" fill-opacity="0.45"/>
  <rect x="156" y="260" width="600" height="8" rx="4" fill="#2A2A2A" fill-opacity="0.35"/>
  <rect x="156" y="314" width="190" height="190" rx="12" fill="#F1F1F1" stroke="#111111" stroke-opacity="0.15"/>
  <rect x="366" y="314" width="190" height="190" rx="12" fill="#F1F1F1" stroke="#111111" stroke-opacity="0.15"/>
  <rect x="576" y="314" width="190" height="190" rx="12" fill="#F1F1F1" stroke="#111111" stroke-opacity="0.15"/>
  <rect x="916" y="142" width="356" height="440" rx="14" fill="#FCFCFC" stroke="#151515" stroke-opacity="0.15"/>
  <circle cx="1030" cy="238" r="64" fill="#111111"/>
  <rect x="978" y="336" width="240" height="8" rx="4" fill="#111111"/>
  <rect x="978" y="362" width="190" height="8" rx="4" fill="#111111" fill-opacity="0.55"/>
  <rect x="978" y="386" width="220" height="8" rx="4" fill="#111111" fill-opacity="0.4"/>
  <rect x="128" y="628" width="1144" height="146" rx="14" fill="#FFFFFF" stroke="#151515" stroke-opacity="0.15"/>
  <rect x="156" y="666" width="300" height="10" rx="5" fill="#111111"/>
  <rect x="156" y="694" width="690" height="8" rx="4" fill="#111111" fill-opacity="0.42"/>
  <rect x="890" y="662" width="160" height="36" rx="18" fill="#111111"/>
  <rect x="1070" y="662" width="160" height="36" rx="18" fill="#F1F1F1" stroke="#111111" stroke-opacity="0.2"/>
</svg>

